<svg xmlns="http://www.w3.org/2000/svg" xmlns:xlink="http://www.w3.org/1999/xlink" width="1080" zoomAndPan="magnify" viewBox="0 0 810 809.999993" height="1080" preserveAspectRatio="xMidYMid meet" version="1.0"><defs><g/></defs><g fill="#ffffff" fill-opacity="1"><g transform="translate(65.535564, 533.260363)"><g><path d="M 219.546875 -4.1875 C 220.015625 -3.257812 219.894531 -2.328125 219.1875 -1.390625 C 218.488281 -0.460938 217.5625 0 216.40625 0 L 168.15625 0 C 166.519531 0 165.472656 -0.695312 165.015625 -2.09375 L 109.765625 -158.015625 L 55.234375 -2.09375 C 55.003906 -0.695312 53.835938 0 51.734375 0 L 3.84375 0 C 2.207031 0 1.097656 -0.460938 0.515625 -1.390625 C -0.0546875 -2.328125 -0.113281 -3.257812 0.34375 -4.1875 L 106.28125 -277.578125 C 106.738281 -278.972656 107.898438 -279.671875 109.765625 -279.671875 C 111.628906 -279.671875 112.796875 -278.972656 113.265625 -277.578125 Z M 219.546875 -4.1875 "/></g></g></g><g fill="#ffffff" fill-opacity="1"><g transform="translate(296.267182, 533.260363)"><g><path d="M 49.640625 -279.671875 C 63.160156 -279.671875 77.492188 -278.738281 92.640625 -276.875 C 107.785156 -275.007812 122.46875 -271.394531 136.6875 -266.03125 C 150.90625 -260.675781 163.78125 -252.867188 175.3125 -242.609375 C 186.851562 -232.359375 196.0625 -218.898438 202.9375 -202.234375 C 209.8125 -185.578125 213.25 -164.78125 213.25 -139.84375 C 213.25 -115.832031 209.867188 -95.609375 203.109375 -79.171875 C 196.347656 -62.742188 187.257812 -49.34375 175.84375 -38.96875 C 164.425781 -28.601562 151.550781 -20.566406 137.21875 -14.859375 C 122.882812 -9.148438 108.203125 -5.242188 93.171875 -3.140625 C 78.140625 -1.046875 63.628906 0 49.640625 0 L 3.84375 0 C 1.28125 0 0 -1.046875 0 -3.140625 L 0 -112.921875 L 53.484375 -112.921875 L 53.484375 -51.390625 C 60.242188 -51.160156 68.164062 -51.332031 77.25 -51.90625 C 86.34375 -52.488281 95.664062 -54.238281 105.21875 -57.15625 C 114.78125 -60.070312 123.695312 -64.675781 131.96875 -70.96875 C 140.238281 -77.257812 146.878906 -86 151.890625 -97.1875 C 156.910156 -108.375 159.421875 -122.59375 159.421875 -139.84375 C 159.421875 -161.976562 154.816406 -179.742188 145.609375 -193.140625 C 136.398438 -206.546875 123.8125 -216.101562 107.84375 -221.8125 C 91.882812 -227.519531 73.765625 -229.796875 53.484375 -228.640625 L 53.484375 -166.75 L 0 -166.75 L 0 -276.53125 C 0 -278.625 1.28125 -279.671875 3.84375 -279.671875 Z M 49.640625 -279.671875 "/></g></g></g><g fill="#ffffff" fill-opacity="1"><g transform="translate(520.356516, 533.260363)"><g><path d="M 159.765625 -51.390625 L 213.25 -51.390625 L 213.25 -3.140625 C 213.25 -1.046875 211.96875 0 209.40625 0 L 163.953125 0 C 149.972656 0 135.40625 -1.046875 120.25 -3.140625 C 105.101562 -5.242188 90.421875 -9.148438 76.203125 -14.859375 C 61.992188 -20.566406 49.117188 -28.601562 37.578125 -38.96875 C 26.046875 -49.34375 16.898438 -62.742188 10.140625 -79.171875 C 3.378906 -95.609375 0 -115.832031 0 -139.84375 C 0 -164.539062 3.4375 -185.28125 10.3125 -202.0625 C 17.1875 -218.84375 26.390625 -232.359375 37.921875 -242.609375 C 49.460938 -252.867188 62.398438 -260.675781 76.734375 -266.03125 C 91.066406 -271.394531 105.75 -275.007812 120.78125 -276.875 C 135.8125 -278.738281 150.203125 -279.671875 163.953125 -279.671875 L 209.40625 -279.671875 C 211.96875 -279.671875 213.25 -278.625 213.25 -276.53125 L 213.25 -166.75 L 159.765625 -166.75 L 159.765625 -228.640625 C 139.484375 -229.796875 121.359375 -227.519531 105.390625 -221.8125 C 89.429688 -216.101562 76.847656 -206.546875 67.640625 -193.140625 C 58.441406 -179.742188 53.84375 -161.976562 53.84375 -139.84375 C 53.84375 -122.59375 56.347656 -108.375 61.359375 -97.1875 C 66.367188 -86 73.007812 -77.257812 81.28125 -70.96875 C 89.550781 -64.675781 98.460938 -60.070312 108.015625 -57.15625 C 117.578125 -54.238281 126.898438 -52.488281 135.984375 -51.90625 C 145.078125 -51.332031 153.003906 -51.160156 159.765625 -51.390625 Z M 159.765625 -51.390625 "/></g></g></g><g fill="#ffffff" fill-opacity="1"><g transform="translate(173.623658, 599.403038)"><g><path d="M 15.765625 0 L 14.21875 -5.078125 L 6.421875 -5.078125 L 4.875 0 L 0 0 L 7.53125 -21.453125 L 13.078125 -21.453125 L 20.640625 0 Z M 13.140625 -8.890625 C 11.703125 -13.492188 10.894531 -16.097656 10.71875 -16.703125 C 10.539062 -17.304688 10.410156 -17.78125 10.328125 -18.125 C 10.003906 -16.882812 9.082031 -13.804688 7.5625 -8.890625 Z M 13.140625 -8.890625 "/></g></g></g><g fill="#ffffff" fill-opacity="1"><g transform="translate(194.270361, 599.403038)"><g><path d="M 11.734375 0 L 6.59375 -16.765625 L 6.453125 -16.765625 C 6.640625 -13.347656 6.734375 -11.070312 6.734375 -9.9375 L 6.734375 0 L 2.6875 0 L 2.6875 -21.359375 L 8.859375 -21.359375 L 13.90625 -5.03125 L 14 -5.03125 L 19.359375 -21.359375 L 25.53125 -21.359375 L 25.53125 0 L 21.296875 0 L 21.296875 -10.109375 C 21.296875 -10.585938 21.300781 -11.140625 21.3125 -11.765625 C 21.332031 -12.390625 21.398438 -14.046875 21.515625 -16.734375 L 21.390625 -16.734375 L 15.875 0 Z M 11.734375 0 "/></g></g></g><g fill="#ffffff" fill-opacity="1"><g transform="translate(222.48606, 599.403038)"><g><path d="M 7.21875 -11.3125 L 8.703125 -11.3125 C 10.097656 -11.3125 11.140625 -11.582031 11.828125 -12.125 C 12.523438 -12.675781 12.875 -13.476562 12.875 -14.53125 C 12.875 -15.59375 12.582031 -16.378906 12 -16.890625 C 11.425781 -17.398438 10.519531 -17.65625 9.28125 -17.65625 L 7.21875 -17.65625 Z M 17.4375 -14.703125 C 17.4375 -12.398438 16.71875 -10.640625 15.28125 -9.421875 C 13.851562 -8.203125 11.8125 -7.59375 9.15625 -7.59375 L 7.21875 -7.59375 L 7.21875 0 L 2.6875 0 L 2.6875 -21.359375 L 9.515625 -21.359375 C 12.097656 -21.359375 14.0625 -20.800781 15.40625 -19.6875 C 16.757812 -18.570312 17.4375 -16.910156 17.4375 -14.703125 Z M 17.4375 -14.703125 "/></g></g></g><g fill="#ffffff" fill-opacity="1"><g transform="translate(241.277043, 599.403038)"><g><path d="M 15.765625 0 L 14.21875 -5.078125 L 6.421875 -5.078125 L 4.875 0 L 0 0 L 7.53125 -21.453125 L 13.078125 -21.453125 L 20.640625 0 Z M 13.140625 -8.890625 C 11.703125 -13.492188 10.894531 -16.097656 10.71875 -16.703125 C 10.539062 -17.304688 10.410156 -17.78125 10.328125 -18.125 C 10.003906 -16.882812 9.082031 -13.804688 7.5625 -8.890625 Z M 13.140625 -8.890625 "/></g></g></g><g fill="#ffffff" fill-opacity="1"><g transform="translate(261.923749, 599.403038)"><g><path d="M 7.21875 -11.875 L 8.671875 -11.875 C 10.109375 -11.875 11.164062 -12.113281 11.84375 -12.59375 C 12.53125 -13.070312 12.875 -13.820312 12.875 -14.84375 C 12.875 -15.851562 12.523438 -16.570312 11.828125 -17 C 11.128906 -17.4375 10.050781 -17.65625 8.59375 -17.65625 L 7.21875 -17.65625 Z M 7.21875 -8.203125 L 7.21875 0 L 2.6875 0 L 2.6875 -21.359375 L 8.90625 -21.359375 C 11.8125 -21.359375 13.957031 -20.828125 15.34375 -19.765625 C 16.738281 -18.710938 17.4375 -17.113281 17.4375 -14.96875 C 17.4375 -13.707031 17.09375 -12.585938 16.40625 -11.609375 C 15.71875 -10.628906 14.738281 -9.863281 13.46875 -9.3125 C 16.6875 -4.507812 18.78125 -1.40625 19.75 0 L 14.734375 0 L 9.625 -8.203125 Z M 7.21875 -8.203125 "/></g></g></g><g fill="#ffffff" fill-opacity="1"><g transform="translate(281.679121, 599.403038)"><g><path d="M 22.078125 -10.703125 C 22.078125 -7.171875 21.195312 -4.453125 19.4375 -2.546875 C 17.6875 -0.648438 15.175781 0.296875 11.90625 0.296875 C 8.632812 0.296875 6.117188 -0.648438 4.359375 -2.546875 C 2.609375 -4.453125 1.734375 -7.179688 1.734375 -10.734375 C 1.734375 -14.296875 2.613281 -17.015625 4.375 -18.890625 C 6.132812 -20.765625 8.65625 -21.703125 11.9375 -21.703125 C 15.21875 -21.703125 17.726562 -20.753906 19.46875 -18.859375 C 21.207031 -16.972656 22.078125 -14.253906 22.078125 -10.703125 Z M 6.484375 -10.703125 C 6.484375 -8.316406 6.9375 -6.519531 7.84375 -5.3125 C 8.75 -4.101562 10.101562 -3.5 11.90625 -3.5 C 15.519531 -3.5 17.328125 -5.898438 17.328125 -10.703125 C 17.328125 -15.515625 15.53125 -17.921875 11.9375 -17.921875 C 10.132812 -17.921875 8.773438 -17.3125 7.859375 -16.09375 C 6.941406 -14.882812 6.484375 -13.085938 6.484375 -10.703125 Z M 6.484375 -10.703125 "/></g></g></g><g fill="#ffffff" fill-opacity="1"><g transform="translate(305.496627, 599.403038)"><g/></g></g><g fill="#ffffff" fill-opacity="1"><g transform="translate(313.270191, 599.403038)"><g><path d="M 20.40625 -10.890625 C 20.40625 -7.367188 19.40625 -4.671875 17.40625 -2.796875 C 15.40625 -0.929688 12.515625 0 8.734375 0 L 2.6875 0 L 2.6875 -21.359375 L 9.390625 -21.359375 C 12.878906 -21.359375 15.585938 -20.4375 17.515625 -18.59375 C 19.441406 -16.757812 20.40625 -14.191406 20.40625 -10.890625 Z M 15.703125 -10.765625 C 15.703125 -15.359375 13.675781 -17.65625 9.625 -17.65625 L 7.21875 -17.65625 L 7.21875 -3.734375 L 9.15625 -3.734375 C 13.519531 -3.734375 15.703125 -6.078125 15.703125 -10.765625 Z M 15.703125 -10.765625 "/></g></g></g><g fill="#ffffff" fill-opacity="1"><g transform="translate(335.421925, 599.403038)"><g><path d="M 2.6875 0 L 2.6875 -21.359375 L 7.21875 -21.359375 L 7.21875 0 Z M 2.6875 0 "/></g></g></g><g fill="#ffffff" fill-opacity="1"><g transform="translate(345.328843, 599.403038)"><g><path d="M 10.796875 -12 L 19.265625 -12 L 19.265625 -0.921875 C 17.890625 -0.472656 16.597656 -0.160156 15.390625 0.015625 C 14.179688 0.203125 12.941406 0.296875 11.671875 0.296875 C 8.453125 0.296875 5.988281 -0.648438 4.28125 -2.546875 C 2.582031 -4.441406 1.734375 -7.160156 1.734375 -10.703125 C 1.734375 -14.148438 2.71875 -16.835938 4.6875 -18.765625 C 6.664062 -20.703125 9.40625 -21.671875 12.90625 -21.671875 C 15.09375 -21.671875 17.203125 -21.234375 19.234375 -20.359375 L 17.734375 -16.734375 C 16.179688 -17.503906 14.5625 -17.890625 12.875 -17.890625 C 10.914062 -17.890625 9.347656 -17.234375 8.171875 -15.921875 C 6.992188 -14.609375 6.40625 -12.84375 6.40625 -10.625 C 6.40625 -8.300781 6.878906 -6.53125 7.828125 -5.3125 C 8.773438 -4.09375 10.15625 -3.484375 11.96875 -3.484375 C 12.914062 -3.484375 13.875 -3.578125 14.84375 -3.765625 L 14.84375 -8.21875 L 10.796875 -8.21875 Z M 10.796875 -12 "/></g></g></g><g fill="#ffffff" fill-opacity="1"><g transform="translate(366.998386, 599.403038)"><g><path d="M 2.6875 0 L 2.6875 -21.359375 L 7.21875 -21.359375 L 7.21875 0 Z M 2.6875 0 "/></g></g></g><g fill="#ffffff" fill-opacity="1"><g transform="translate(376.905304, 599.403038)"><g><path d="M 10.921875 0 L 6.40625 0 L 6.40625 -17.59375 L 0.59375 -17.59375 L 0.59375 -21.359375 L 16.734375 -21.359375 L 16.734375 -17.59375 L 10.921875 -17.59375 Z M 10.921875 0 "/></g></g></g><g fill="#ffffff" fill-opacity="1"><g transform="translate(394.235083, 599.403038)"><g><path d="M 15.765625 0 L 14.21875 -5.078125 L 6.421875 -5.078125 L 4.875 0 L 0 0 L 7.53125 -21.453125 L 13.078125 -21.453125 L 20.640625 0 Z M 13.140625 -8.890625 C 11.703125 -13.492188 10.894531 -16.097656 10.71875 -16.703125 C 10.539062 -17.304688 10.410156 -17.78125 10.328125 -18.125 C 10.003906 -16.882812 9.082031 -13.804688 7.5625 -8.890625 Z M 13.140625 -8.890625 "/></g></g></g><g fill="#ffffff" fill-opacity="1"><g transform="translate(414.881782, 599.403038)"><g><path d="M 2.6875 0 L 2.6875 -21.359375 L 7.21875 -21.359375 L 7.21875 -3.734375 L 15.875 -3.734375 L 15.875 0 Z M 2.6875 0 "/></g></g></g><g fill="#ffffff" fill-opacity="1"><g transform="translate(431.787818, 599.403038)"><g/></g></g><g fill="#ffffff" fill-opacity="1"><g transform="translate(439.561397, 599.403038)"><g><path d="M 11.765625 -17.890625 C 10.054688 -17.890625 8.734375 -17.25 7.796875 -15.96875 C 6.867188 -14.695312 6.40625 -12.914062 6.40625 -10.625 C 6.40625 -5.863281 8.191406 -3.484375 11.765625 -3.484375 C 13.265625 -3.484375 15.078125 -3.859375 17.203125 -4.609375 L 17.203125 -0.796875 C 15.453125 -0.0664062 13.5 0.296875 11.34375 0.296875 C 8.226562 0.296875 5.847656 -0.644531 4.203125 -2.53125 C 2.554688 -4.414062 1.734375 -7.125 1.734375 -10.65625 C 1.734375 -12.875 2.132812 -14.816406 2.9375 -16.484375 C 3.75 -18.160156 4.910156 -19.441406 6.421875 -20.328125 C 7.941406 -21.222656 9.722656 -21.671875 11.765625 -21.671875 C 13.835938 -21.671875 15.921875 -21.164062 18.015625 -20.15625 L 16.546875 -16.484375 C 15.753906 -16.859375 14.953125 -17.1875 14.140625 -17.46875 C 13.335938 -17.75 12.546875 -17.890625 11.765625 -17.890625 Z M 11.765625 -17.890625 "/></g></g></g><g fill="#ffffff" fill-opacity="1"><g transform="translate(458.630018, 599.403038)"><g><path d="M 2.6875 0 L 2.6875 -21.359375 L 7.21875 -21.359375 L 7.21875 0 Z M 2.6875 0 "/></g></g></g><g fill="#ffffff" fill-opacity="1"><g transform="translate(468.536936, 599.403038)"><g><path d="M 2.6875 -21.359375 L 9.34375 -21.359375 C 12.363281 -21.359375 14.554688 -20.925781 15.921875 -20.0625 C 17.296875 -19.207031 17.984375 -17.835938 17.984375 -15.953125 C 17.984375 -14.679688 17.679688 -13.632812 17.078125 -12.8125 C 16.484375 -12 15.691406 -11.507812 14.703125 -11.34375 L 14.703125 -11.1875 C 16.054688 -10.882812 17.03125 -10.316406 17.625 -9.484375 C 18.226562 -8.660156 18.53125 -7.5625 18.53125 -6.1875 C 18.53125 -4.238281 17.820312 -2.71875 16.40625 -1.625 C 15 -0.539062 13.09375 0 10.6875 0 L 2.6875 0 Z M 7.21875 -12.90625 L 9.84375 -12.90625 C 11.070312 -12.90625 11.960938 -13.09375 12.515625 -13.46875 C 13.066406 -13.851562 13.34375 -14.484375 13.34375 -15.359375 C 13.34375 -16.171875 13.039062 -16.753906 12.4375 -17.109375 C 11.84375 -17.472656 10.894531 -17.65625 9.59375 -17.65625 L 7.21875 -17.65625 Z M 7.21875 -9.3125 L 7.21875 -3.734375 L 10.171875 -3.734375 C 11.410156 -3.734375 12.328125 -3.972656 12.921875 -4.453125 C 13.523438 -4.929688 13.828125 -5.660156 13.828125 -6.640625 C 13.828125 -8.421875 12.554688 -9.3125 10.015625 -9.3125 Z M 7.21875 -9.3125 "/></g></g></g><g fill="#ffffff" fill-opacity="1"><g transform="translate(488.642996, 599.403038)"><g><path d="M 14.984375 0 L 2.6875 0 L 2.6875 -21.359375 L 14.984375 -21.359375 L 14.984375 -17.65625 L 7.21875 -17.65625 L 7.21875 -12.953125 L 14.453125 -12.953125 L 14.453125 -9.25 L 7.21875 -9.25 L 7.21875 -3.734375 L 14.984375 -3.734375 Z M 14.984375 0 "/></g></g></g><g fill="#ffffff" fill-opacity="1"><g transform="translate(505.40292, 599.403038)"><g><path d="M 7.21875 -11.875 L 8.671875 -11.875 C 10.109375 -11.875 11.164062 -12.113281 11.84375 -12.59375 C 12.53125 -13.070312 12.875 -13.820312 12.875 -14.84375 C 12.875 -15.851562 12.523438 -16.570312 11.828125 -17 C 11.128906 -17.4375 10.050781 -17.65625 8.59375 -17.65625 L 7.21875 -17.65625 Z M 7.21875 -8.203125 L 7.21875 0 L 2.6875 0 L 2.6875 -21.359375 L 8.90625 -21.359375 C 11.8125 -21.359375 13.957031 -20.828125 15.34375 -19.765625 C 16.738281 -18.710938 17.4375 -17.113281 17.4375 -14.96875 C 17.4375 -13.707031 17.09375 -12.585938 16.40625 -11.609375 C 15.71875 -10.628906 14.738281 -9.863281 13.46875 -9.3125 C 16.6875 -4.507812 18.78125 -1.40625 19.75 0 L 14.734375 0 L 9.625 -8.203125 Z M 7.21875 -8.203125 "/></g></g></g><g fill="#ffffff" fill-opacity="1"><g transform="translate(525.158292, 599.403038)"><g><path d="M 21.640625 0 L 15.875 0 L 6.59375 -16.15625 L 6.453125 -16.15625 C 6.640625 -13.300781 6.734375 -11.265625 6.734375 -10.046875 L 6.734375 0 L 2.6875 0 L 2.6875 -21.359375 L 8.40625 -21.359375 L 17.671875 -5.359375 L 17.78125 -5.359375 C 17.632812 -8.140625 17.5625 -10.101562 17.5625 -11.25 L 17.5625 -21.359375 L 21.640625 -21.359375 Z M 21.640625 0 "/></g></g></g><g fill="#ffffff" fill-opacity="1"><g transform="translate(549.48722, 599.403038)"><g><path d="M 14.984375 0 L 2.6875 0 L 2.6875 -21.359375 L 14.984375 -21.359375 L 14.984375 -17.65625 L 7.21875 -17.65625 L 7.21875 -12.953125 L 14.453125 -12.953125 L 14.453125 -9.25 L 7.21875 -9.25 L 7.21875 -3.734375 L 14.984375 -3.734375 Z M 6.1875 -23.0625 L 6.1875 -23.46875 C 7.863281 -25.414062 9.007812 -26.878906 9.625 -27.859375 L 14.625 -27.859375 L 14.625 -27.546875 C 14.113281 -27.046875 13.25 -26.296875 12.03125 -25.296875 C 10.8125 -24.296875 9.851562 -23.550781 9.15625 -23.0625 Z M 6.1875 -23.0625 "/></g></g></g><g fill="#ffffff" fill-opacity="1"><g transform="translate(566.247145, 599.403038)"><g><path d="M 10.921875 0 L 6.40625 0 L 6.40625 -17.59375 L 0.59375 -17.59375 L 0.59375 -21.359375 L 16.734375 -21.359375 L 16.734375 -17.59375 L 10.921875 -17.59375 Z M 10.921875 0 "/></g></g></g><g fill="#ffffff" fill-opacity="1"><g transform="translate(583.576924, 599.403038)"><g><path d="M 2.6875 0 L 2.6875 -21.359375 L 7.21875 -21.359375 L 7.21875 0 Z M 2.6875 0 "/></g></g></g><g fill="#ffffff" fill-opacity="1"><g transform="translate(593.483842, 599.403038)"><g><path d="M 11.765625 -17.890625 C 10.054688 -17.890625 8.734375 -17.25 7.796875 -15.96875 C 6.867188 -14.695312 6.40625 -12.914062 6.40625 -10.625 C 6.40625 -5.863281 8.191406 -3.484375 11.765625 -3.484375 C 13.265625 -3.484375 15.078125 -3.859375 17.203125 -4.609375 L 17.203125 -0.796875 C 15.453125 -0.0664062 13.5 0.296875 11.34375 0.296875 C 8.226562 0.296875 5.847656 -0.644531 4.203125 -2.53125 C 2.554688 -4.414062 1.734375 -7.125 1.734375 -10.65625 C 1.734375 -12.875 2.132812 -14.816406 2.9375 -16.484375 C 3.75 -18.160156 4.910156 -19.441406 6.421875 -20.328125 C 7.941406 -21.222656 9.722656 -21.671875 11.765625 -21.671875 C 13.835938 -21.671875 15.921875 -21.164062 18.015625 -20.15625 L 16.546875 -16.484375 C 15.753906 -16.859375 14.953125 -17.1875 14.140625 -17.46875 C 13.335938 -17.75 12.546875 -17.890625 11.765625 -17.890625 Z M 11.765625 -17.890625 "/></g></g></g><g fill="#ffffff" fill-opacity="1"><g transform="translate(612.552463, 599.403038)"><g><path d="M 22.078125 -10.703125 C 22.078125 -7.171875 21.195312 -4.453125 19.4375 -2.546875 C 17.6875 -0.648438 15.175781 0.296875 11.90625 0.296875 C 8.632812 0.296875 6.117188 -0.648438 4.359375 -2.546875 C 2.609375 -4.453125 1.734375 -7.179688 1.734375 -10.734375 C 1.734375 -14.296875 2.613281 -17.015625 4.375 -18.890625 C 6.132812 -20.765625 8.65625 -21.703125 11.9375 -21.703125 C 15.21875 -21.703125 17.726562 -20.753906 19.46875 -18.859375 C 21.207031 -16.972656 22.078125 -14.253906 22.078125 -10.703125 Z M 6.484375 -10.703125 C 6.484375 -8.316406 6.9375 -6.519531 7.84375 -5.3125 C 8.75 -4.101562 10.101562 -3.5 11.90625 -3.5 C 15.519531 -3.5 17.328125 -5.898438 17.328125 -10.703125 C 17.328125 -15.515625 15.53125 -17.921875 11.9375 -17.921875 C 10.132812 -17.921875 8.773438 -17.3125 7.859375 -16.09375 C 6.941406 -14.882812 6.484375 -13.085938 6.484375 -10.703125 Z M 6.484375 -10.703125 "/></g></g></g></svg>